<?xml version="1.0" encoding="UTF-8"?><svg id="_레이어_1" xmlns="http://www.w3.org/2000/svg" viewBox="0 0 20.76 20.76"><defs><style>.cls-1{opacity:.87;}.cls-2{fill:#fff;}.cls-3{fill:none;stroke:#040000;stroke-miterlimit:10;stroke-width:.35px;}</style></defs><rect class="cls-2" width="20.76" height="20.76" rx="4.85" ry="4.85"/><g class="cls-1"><path class="cls-3" d="M13.32,7.97c0,2.33-.99,4.22-2.21,4.22s-2.21-1.87-2.21-4.19c0-.01,0-.02,0-.03,0-2.33.99-4.22,2.21-4.22s2.21,1.89,2.21,4.22Z"/><path class="cls-3" d="M7.39,9.28c0,.43-.26.79-.58.79s-.58-.35-.58-.78c0,0,0,0,0,0,0-.43.26-.79.58-.79s.58.35.58.79Z"/><path class="cls-3" d="M9.94,8.74c-.37.02-.7-.33-.57-.74.09-.33.45-.58.9-.64,0,0-.02.66-.07,1.38-.05.81.14,1.42-.21,1.76-.28.29-1.1-.03-1.18-.43-.06-.31.31-.65.61-.78.43-.2.84-.06.94-.02"/><path class="cls-3" d="M8.21,9.59c-.33-.36-.39-.89-.15-1.26.27-.43.8-.46.84-.46"/><line class="cls-3" x1="9.13" y1="6.66" x2="9.13" y2="6.66"/><path class="cls-3" d="M10.71,5.86c-.41.29-1.05.71-1.9,1.1-1.38.62-2.09.6-3.16,1.22-.47.28-1.13.74-1.78,1.54"/><path class="cls-3" d="M12.91,5.38c-.31.26-.69.53-1.15.75-.12.06-.24.11-.36.16"/><path class="cls-3" d="M13.17,6.16c-.24.2-.54.4-.9.57-.09.04-.17.07-.25.11"/><path class="cls-3" d="M9.71,11.4c.28-.06.74-.2,1.18-.63.08-.08.15-.16.22-.24"/><path class="cls-3" d="M14.46,13.55c-.47-.1-1.24-.19-2.04.12-1.87.72-1.89,2.85-3.75,3.73-1.35.64-2.76.2-2.96.14-2.67-.87-3.48-4.53-3.84-6.15-.78-3.53.04-6.6.71-8.36"/><line class="cls-3" x1="5.61" y1="10.53" x2="5.45" y2="8.3"/><path class="cls-3" d="M13.82,8.71c0,.43-.26.79-.58.79s-.58-.35-.58-.78c0,0,0,0,0,0,0-.43.26-.79.58-.79s.58.35.58.79Z"/><path class="cls-3" d="M16.42,8.2s-.34,0-.5-.24c-.14-.21-.08-.44-.07-.5.09-.33.45-.58.9-.64,0,0-.02.66-.07,1.38-.05.81.14,1.42-.21,1.76-.09.09-.19.11-.21.12-.49.13-1.22-.49-1.15-.88.07-.45,1.21-.72,2-.58.7.12,1.22.57,1.22.57.05.04.09.08.12.11"/><path class="cls-3" d="M17.14,5.29c-.41.29-1.05.71-1.9,1.1-1.1.49-1.89.58-3.16,1.22-.26.13-.71.38-1.17.82-.29.28-.49.54-.61.72"/><line class="cls-3" x1="12.03" y1="9.96" x2="11.88" y2="7.73"/><path class="cls-3" d="M15.26,8.95c-.01-.16-.02-.34-.03-.52,0-.41.03-.79.08-1.12-.04,0-.57.02-.84.46-.24.38-.18.9.15,1.26"/><circle class="cls-3" cx="18.89" cy="10.96" r=".32"/></g></svg>